<svg xmlns="http://www.w3.org/2000/svg" xmlns:xlink="http://www.w3.org/1999/xlink" width="37" height="31"><defs><linearGradient id="b" x1="100%" x2="0%" y1="-2814.498%" y2="2914.498%"><stop offset="0%" stop-color="#D66D0C"/><stop offset="100%" stop-color="#AF3D28"/></linearGradient><path id="a" d="M24.873 2.832l7.142 7.182a2.914 2.914 0 0 1 0 4.104L24.873 21.3a2.875 2.875 0 0 1-4.08 0l-7.143-7.182a2.914 2.914 0 0 1 0-4.104l7.142-7.182a2.874 2.874 0 0 1 4.081 0z"/><path id="c" d="M9.91 20.373l4.67 4.696a1.905 1.905 0 0 1 0 2.683l-4.67 4.696a1.88 1.88 0 0 1-2.669 0l-4.669-4.696a1.904 1.904 0 0 1 0-2.683l4.67-4.696a1.88 1.88 0 0 1 2.668 0z"/><linearGradient id="e" x1="100%" x2="0%" y1="-3053.206%" y2="3153.206%"><stop offset="0%" stop-color="#D66D0C"/><stop offset="100%" stop-color="#AF3D28"/></linearGradient><path id="d" d="M35.333 18.662l3.29 3.309a1.342 1.342 0 0 1 0 1.89l-3.29 3.309a1.324 1.324 0 0 1-1.88 0l-3.29-3.309a1.343 1.343 0 0 1 0-1.89l3.29-3.309a1.325 1.325 0 0 1 1.88 0z"/></defs><g fill="none" fill-rule="evenodd"><g transform="translate(-2 -2)"><use fill="#ED363F" xlink:href="#a"/><use fill="url(#b)" xlink:href="#a"/></g><g transform="translate(-2 -2)"><use fill="#ED363F" xlink:href="#c"/><use fill="url(#b)" xlink:href="#c"/></g><g transform="translate(-2 -2)"><use fill="#ED363F" xlink:href="#d"/><use fill="url(#e)" xlink:href="#d"/></g></g></svg>